<mxfile host="app.diagrams.net" modified="2022-12-13T14:24:49.849Z" agent="5.0 (Windows NT 10.0; Win64; x64) AppleWebKit/537.36 (KHTML, like Gecko) Chrome/108.0.0.0 Safari/537.36" etag="Jf42g-Ir6T63SPOhIJ9M" version="20.6.0" type="github">
  <diagram id="w45ohGnBDy_Xerp7tvFx" name="Sayfa -1">
    <mxGraphModel dx="2249" dy="874" grid="1" gridSize="10" guides="1" tooltips="1" connect="1" arrows="1" fold="1" page="1" pageScale="1" pageWidth="827" pageHeight="1169" math="0" shadow="0">
      <root>
        <mxCell id="0" />
        <mxCell id="1" parent="0" />
        <mxCell id="-uSJNEWJtSA9gPbqnGtd-9" value="" style="rounded=0;whiteSpace=wrap;html=1;" parent="1" vertex="1">
          <mxGeometry x="88.25" y="110" width="650" height="1380" as="geometry" />
        </mxCell>
        <mxCell id="Lnx99n3POOH0JyFM9fLy-15" value="" style="ellipse;whiteSpace=wrap;html=1;" vertex="1" parent="1">
          <mxGeometry x="415" y="1100" width="290" height="380" as="geometry" />
        </mxCell>
        <mxCell id="Lnx99n3POOH0JyFM9fLy-11" style="edgeStyle=none;rounded=0;orthogonalLoop=1;jettySize=auto;html=1;exitX=0;exitY=0.3333333333333333;exitDx=0;exitDy=0;exitPerimeter=0;entryX=1;entryY=0.5;entryDx=0;entryDy=0;" edge="1" parent="1" source="-uSJNEWJtSA9gPbqnGtd-5" target="Lnx99n3POOH0JyFM9fLy-6">
          <mxGeometry relative="1" as="geometry" />
        </mxCell>
        <mxCell id="Lnx99n3POOH0JyFM9fLy-7" style="edgeStyle=none;rounded=0;orthogonalLoop=1;jettySize=auto;html=1;exitX=0;exitY=0.3333333333333333;exitDx=0;exitDy=0;exitPerimeter=0;entryX=1;entryY=0.5;entryDx=0;entryDy=0;" edge="1" parent="1" source="-uSJNEWJtSA9gPbqnGtd-4" target="Lnx99n3POOH0JyFM9fLy-6">
          <mxGeometry relative="1" as="geometry" />
        </mxCell>
        <mxCell id="Lnx99n3POOH0JyFM9fLy-6" value="" style="ellipse;whiteSpace=wrap;html=1;" vertex="1" parent="1">
          <mxGeometry x="145.75" y="120" width="230" height="490" as="geometry" />
        </mxCell>
        <mxCell id="Lnx99n3POOH0JyFM9fLy-4" value="" style="ellipse;whiteSpace=wrap;html=1;" vertex="1" parent="1">
          <mxGeometry x="470" y="120" width="230" height="490" as="geometry" />
        </mxCell>
        <mxCell id="Lnx99n3POOH0JyFM9fLy-10" style="edgeStyle=none;rounded=0;orthogonalLoop=1;jettySize=auto;html=1;exitX=1;exitY=0.3333333333333333;exitDx=0;exitDy=0;exitPerimeter=0;entryX=0.158;entryY=0.869;entryDx=0;entryDy=0;entryPerimeter=0;" edge="1" parent="1" source="-uSJNEWJtSA9gPbqnGtd-1" target="Lnx99n3POOH0JyFM9fLy-6">
          <mxGeometry relative="1" as="geometry" />
        </mxCell>
        <mxCell id="-uSJNEWJtSA9gPbqnGtd-1" value="Customer Personel" style="shape=umlActor;verticalLabelPosition=bottom;verticalAlign=top;html=1;outlineConnect=0;" parent="1" vertex="1">
          <mxGeometry x="-60" y="920" width="30" height="60" as="geometry" />
        </mxCell>
        <mxCell id="Lnx99n3POOH0JyFM9fLy-9" style="edgeStyle=none;rounded=0;orthogonalLoop=1;jettySize=auto;html=1;exitX=1;exitY=0.3333333333333333;exitDx=0;exitDy=0;exitPerimeter=0;entryX=0;entryY=1;entryDx=0;entryDy=0;" edge="1" parent="1" source="-uSJNEWJtSA9gPbqnGtd-2" target="Lnx99n3POOH0JyFM9fLy-6">
          <mxGeometry relative="1" as="geometry" />
        </mxCell>
        <mxCell id="-uSJNEWJtSA9gPbqnGtd-2" value="Customer Project Manager" style="shape=umlActor;verticalLabelPosition=bottom;verticalAlign=top;html=1;outlineConnect=0;" parent="1" vertex="1">
          <mxGeometry x="-60" y="710" width="30" height="60" as="geometry" />
        </mxCell>
        <mxCell id="Lnx99n3POOH0JyFM9fLy-8" style="edgeStyle=none;rounded=0;orthogonalLoop=1;jettySize=auto;html=1;exitX=1;exitY=0.3333333333333333;exitDx=0;exitDy=0;exitPerimeter=0;entryX=0;entryY=0.5;entryDx=0;entryDy=0;" edge="1" parent="1" source="-uSJNEWJtSA9gPbqnGtd-3" target="Lnx99n3POOH0JyFM9fLy-6">
          <mxGeometry relative="1" as="geometry" />
        </mxCell>
        <mxCell id="-uSJNEWJtSA9gPbqnGtd-3" value="Customer Admin" style="shape=umlActor;verticalLabelPosition=bottom;verticalAlign=top;html=1;outlineConnect=0;" parent="1" vertex="1">
          <mxGeometry x="-60" y="510" width="30" height="60" as="geometry" />
        </mxCell>
        <mxCell id="Lnx99n3POOH0JyFM9fLy-12" style="edgeStyle=none;rounded=0;orthogonalLoop=1;jettySize=auto;html=1;exitX=0;exitY=0.3333333333333333;exitDx=0;exitDy=0;exitPerimeter=0;entryX=1;entryY=0.5;entryDx=0;entryDy=0;" edge="1" parent="1" source="-uSJNEWJtSA9gPbqnGtd-4" target="-uSJNEWJtSA9gPbqnGtd-21">
          <mxGeometry relative="1" as="geometry" />
        </mxCell>
        <mxCell id="Lnx99n3POOH0JyFM9fLy-13" style="edgeStyle=none;rounded=0;orthogonalLoop=1;jettySize=auto;html=1;exitX=0;exitY=0.3333333333333333;exitDx=0;exitDy=0;exitPerimeter=0;entryX=1;entryY=0.5;entryDx=0;entryDy=0;" edge="1" parent="1" source="-uSJNEWJtSA9gPbqnGtd-4" target="-uSJNEWJtSA9gPbqnGtd-20">
          <mxGeometry relative="1" as="geometry" />
        </mxCell>
        <mxCell id="Lnx99n3POOH0JyFM9fLy-14" style="edgeStyle=none;rounded=0;orthogonalLoop=1;jettySize=auto;html=1;exitX=0;exitY=0.3333333333333333;exitDx=0;exitDy=0;exitPerimeter=0;entryX=1;entryY=0.5;entryDx=0;entryDy=0;" edge="1" parent="1" source="-uSJNEWJtSA9gPbqnGtd-4" target="-uSJNEWJtSA9gPbqnGtd-14">
          <mxGeometry relative="1" as="geometry" />
        </mxCell>
        <mxCell id="-uSJNEWJtSA9gPbqnGtd-4" value="Company Developer" style="shape=umlActor;verticalLabelPosition=bottom;verticalAlign=top;html=1;outlineConnect=0;" parent="1" vertex="1">
          <mxGeometry x="890" y="410" width="30" height="60" as="geometry" />
        </mxCell>
        <mxCell id="Lnx99n3POOH0JyFM9fLy-5" style="edgeStyle=none;rounded=0;orthogonalLoop=1;jettySize=auto;html=1;exitX=0;exitY=0.3333333333333333;exitDx=0;exitDy=0;exitPerimeter=0;entryX=1;entryY=0.5;entryDx=0;entryDy=0;" edge="1" parent="1" source="-uSJNEWJtSA9gPbqnGtd-5" target="Lnx99n3POOH0JyFM9fLy-4">
          <mxGeometry relative="1" as="geometry" />
        </mxCell>
        <mxCell id="-uSJNEWJtSA9gPbqnGtd-5" value="Company Project Manager" style="shape=umlActor;verticalLabelPosition=bottom;verticalAlign=top;html=1;outlineConnect=0;" parent="1" vertex="1">
          <mxGeometry x="890" y="600" width="30" height="60" as="geometry" />
        </mxCell>
        <mxCell id="Lnx99n3POOH0JyFM9fLy-3" style="edgeStyle=none;rounded=0;orthogonalLoop=1;jettySize=auto;html=1;exitX=0;exitY=0.3333333333333333;exitDx=0;exitDy=0;exitPerimeter=0;entryX=1;entryY=0.5;entryDx=0;entryDy=0;" edge="1" parent="1" source="-uSJNEWJtSA9gPbqnGtd-6" target="-uSJNEWJtSA9gPbqnGtd-9">
          <mxGeometry relative="1" as="geometry" />
        </mxCell>
        <mxCell id="-uSJNEWJtSA9gPbqnGtd-6" value="System Admin" style="shape=umlActor;verticalLabelPosition=bottom;verticalAlign=top;html=1;outlineConnect=0;" parent="1" vertex="1">
          <mxGeometry x="890" y="960" width="30" height="60" as="geometry" />
        </mxCell>
        <mxCell id="-uSJNEWJtSA9gPbqnGtd-10" value="Login" style="ellipse;whiteSpace=wrap;html=1;" parent="1" vertex="1">
          <mxGeometry x="222.13" y="172.5" width="76.5" height="50" as="geometry" />
        </mxCell>
        <mxCell id="-uSJNEWJtSA9gPbqnGtd-11" value="List&lt;br&gt;Projects" style="ellipse;whiteSpace=wrap;html=1;" parent="1" vertex="1">
          <mxGeometry x="222.38" y="237.5" width="76.5" height="50" as="geometry" />
        </mxCell>
        <mxCell id="-uSJNEWJtSA9gPbqnGtd-12" value="List&lt;br&gt;Jobs" style="ellipse;whiteSpace=wrap;html=1;" parent="1" vertex="1">
          <mxGeometry x="222.38" y="302.5" width="76.5" height="50" as="geometry" />
        </mxCell>
        <mxCell id="-uSJNEWJtSA9gPbqnGtd-13" value="Add a new Project" style="ellipse;whiteSpace=wrap;html=1;" parent="1" vertex="1">
          <mxGeometry x="222.88" y="770" width="76.5" height="50" as="geometry" />
        </mxCell>
        <mxCell id="-uSJNEWJtSA9gPbqnGtd-14" value="Add an analyze" style="ellipse;whiteSpace=wrap;html=1;" parent="1" vertex="1">
          <mxGeometry x="546.75" y="145" width="76.5" height="50" as="geometry" />
        </mxCell>
        <mxCell id="-uSJNEWJtSA9gPbqnGtd-16" value="See Jobs Details" style="ellipse;whiteSpace=wrap;html=1;" parent="1" vertex="1">
          <mxGeometry x="222.13" y="372.5" width="76.5" height="50" as="geometry" />
        </mxCell>
        <mxCell id="-uSJNEWJtSA9gPbqnGtd-17" value="Confirm Job" style="ellipse;whiteSpace=wrap;html=1;" parent="1" vertex="1">
          <mxGeometry x="222.13" y="925" width="76.5" height="50" as="geometry" />
        </mxCell>
        <mxCell id="-uSJNEWJtSA9gPbqnGtd-18" value="Confirm Analyze" style="ellipse;whiteSpace=wrap;html=1;" parent="1" vertex="1">
          <mxGeometry x="222.13" y="1000" width="76.5" height="50" as="geometry" />
        </mxCell>
        <mxCell id="-uSJNEWJtSA9gPbqnGtd-19" value="Confirm Day" style="ellipse;whiteSpace=wrap;html=1;" parent="1" vertex="1">
          <mxGeometry x="222.13" y="1070" width="76.5" height="50" as="geometry" />
        </mxCell>
        <mxCell id="-uSJNEWJtSA9gPbqnGtd-20" value="Add date" style="ellipse;whiteSpace=wrap;html=1;" parent="1" vertex="1">
          <mxGeometry x="546.75" y="210" width="76.5" height="50" as="geometry" />
        </mxCell>
        <mxCell id="-uSJNEWJtSA9gPbqnGtd-21" value="Change Status" style="ellipse;whiteSpace=wrap;html=1;" parent="1" vertex="1">
          <mxGeometry x="546.75" y="275" width="76.5" height="50" as="geometry" />
        </mxCell>
        <mxCell id="-uSJNEWJtSA9gPbqnGtd-22" value="Change Job Type" style="ellipse;whiteSpace=wrap;html=1;" parent="1" vertex="1">
          <mxGeometry x="546.75" y="340" width="76.5" height="50" as="geometry" />
        </mxCell>
        <mxCell id="-uSJNEWJtSA9gPbqnGtd-23" value="See Projects Details" style="ellipse;whiteSpace=wrap;html=1;" parent="1" vertex="1">
          <mxGeometry x="222.88" y="442.5" width="76.5" height="50" as="geometry" />
        </mxCell>
        <mxCell id="-uSJNEWJtSA9gPbqnGtd-24" value="Get a Report" style="ellipse;whiteSpace=wrap;html=1;" parent="1" vertex="1">
          <mxGeometry x="222.88" y="850" width="76.5" height="50" as="geometry" />
        </mxCell>
        <mxCell id="-uSJNEWJtSA9gPbqnGtd-25" value="Change Job Priority" style="ellipse;whiteSpace=wrap;html=1;" parent="1" vertex="1">
          <mxGeometry x="546.75" y="405" width="76.5" height="50" as="geometry" />
        </mxCell>
        <mxCell id="-uSJNEWJtSA9gPbqnGtd-26" value="Follow a Job" style="ellipse;whiteSpace=wrap;html=1;" parent="1" vertex="1">
          <mxGeometry x="222.13" y="507.5" width="76.5" height="50" as="geometry" />
        </mxCell>
        <mxCell id="-uSJNEWJtSA9gPbqnGtd-65" value="Add a new Job" style="ellipse;whiteSpace=wrap;html=1;" parent="1" vertex="1">
          <mxGeometry x="222.88" y="700" width="76.5" height="50" as="geometry" />
        </mxCell>
        <mxCell id="-uSJNEWJtSA9gPbqnGtd-94" value="See/Edit/Delete Job Priorities" style="ellipse;whiteSpace=wrap;html=1;" parent="1" vertex="1">
          <mxGeometry x="490" y="1140" width="140" height="90" as="geometry" />
        </mxCell>
        <mxCell id="-uSJNEWJtSA9gPbqnGtd-95" value="See/Edit/Delete Job Types" style="ellipse;whiteSpace=wrap;html=1;" parent="1" vertex="1">
          <mxGeometry x="490" y="1250" width="140" height="90" as="geometry" />
        </mxCell>
        <mxCell id="-uSJNEWJtSA9gPbqnGtd-96" value="See/Edit/Delete Job Statuses" style="ellipse;whiteSpace=wrap;html=1;" parent="1" vertex="1">
          <mxGeometry x="490" y="1360" width="140" height="90" as="geometry" />
        </mxCell>
        <mxCell id="-uSJNEWJtSA9gPbqnGtd-97" value="Add/Edit/Delete Project/User Relations" style="ellipse;whiteSpace=wrap;html=1;" parent="1" vertex="1">
          <mxGeometry x="530" y="470" width="110" height="110" as="geometry" />
        </mxCell>
      </root>
    </mxGraphModel>
  </diagram>
</mxfile>
